<svg width="119" height="44" viewBox="0 0 119 44" fill="none" xmlns="http://www.w3.org/2000/svg">
<path d="M53.2096 24.9785L53.5616 23.3785H58.7616L59.1296 24.9785H53.2096ZM56.1376 19.8265L54.3776 23.9385L54.3456 24.3545L52.7936 27.8585H50.6656L56.1376 16.0345L61.6096 27.8585H59.4816L57.9616 24.4505L57.9136 23.9865L56.1376 19.8265ZM63.9205 24.1785C63.9205 24.6479 64.0218 25.0585 64.2245 25.4105C64.4272 25.7519 64.6992 26.0239 65.0405 26.2265C65.3925 26.4292 65.7818 26.5305 66.2085 26.5305C66.5605 26.5305 66.8965 26.4772 67.2165 26.3705C67.5365 26.2639 67.8192 26.1145 68.0645 25.9225C68.3098 25.7305 68.4912 25.5172 68.6085 25.2825V27.1865C68.3525 27.4425 68.0058 27.6452 67.5685 27.7945C67.1312 27.9439 66.6512 28.0185 66.1285 28.0185C65.3712 28.0185 64.6885 27.8585 64.0805 27.5385C63.4832 27.2079 63.0085 26.7545 62.6565 26.1785C62.3152 25.5919 62.1445 24.9252 62.1445 24.1785C62.1445 23.4212 62.3152 22.7545 62.6565 22.1785C63.0085 21.6025 63.4832 21.1545 64.0805 20.8345C64.6885 20.5039 65.3712 20.3385 66.1285 20.3385C66.6512 20.3385 67.1312 20.4132 67.5685 20.5625C68.0058 20.7119 68.3525 20.9145 68.6085 21.1705V23.0745C68.4912 22.8292 68.3045 22.6159 68.0485 22.4345C67.8032 22.2425 67.5205 22.0932 67.2005 21.9865C66.8805 21.8799 66.5498 21.8265 66.2085 21.8265C65.7818 21.8265 65.3925 21.9279 65.0405 22.1305C64.6992 22.3332 64.4272 22.6105 64.2245 22.9625C64.0218 23.3145 63.9205 23.7199 63.9205 24.1785ZM71.6705 24.1785C71.6705 24.6479 71.7718 25.0585 71.9745 25.4105C72.1772 25.7519 72.4492 26.0239 72.7905 26.2265C73.1425 26.4292 73.5318 26.5305 73.9585 26.5305C74.3105 26.5305 74.6465 26.4772 74.9665 26.3705C75.2865 26.2639 75.5692 26.1145 75.8145 25.9225C76.0598 25.7305 76.2412 25.5172 76.3585 25.2825V27.1865C76.1025 27.4425 75.7558 27.6452 75.3185 27.7945C74.8812 27.9439 74.4012 28.0185 73.8785 28.0185C73.1212 28.0185 72.4385 27.8585 71.8305 27.5385C71.2332 27.2079 70.7585 26.7545 70.4065 26.1785C70.0652 25.5919 69.8945 24.9252 69.8945 24.1785C69.8945 23.4212 70.0652 22.7545 70.4065 22.1785C70.7585 21.6025 71.2332 21.1545 71.8305 20.8345C72.4385 20.5039 73.1212 20.3385 73.8785 20.3385C74.4012 20.3385 74.8812 20.4132 75.3185 20.5625C75.7558 20.7119 76.1025 20.9145 76.3585 21.1705V23.0745C76.2412 22.8292 76.0545 22.6159 75.7985 22.4345C75.5532 22.2425 75.2705 22.0932 74.9505 21.9865C74.6305 21.8799 74.2998 21.8265 73.9585 21.8265C73.5318 21.8265 73.1425 21.9279 72.7905 22.1305C72.4492 22.3332 72.1772 22.6105 71.9745 22.9625C71.7718 23.3145 71.6705 23.7199 71.6705 24.1785ZM77.7085 24.1785C77.7085 23.4212 77.8792 22.7545 78.2205 22.1785C78.5725 21.6025 79.0472 21.1545 79.6445 20.8345C80.2418 20.5039 80.9192 20.3385 81.6765 20.3385C82.4338 20.3385 83.1058 20.5039 83.6925 20.8345C84.2898 21.1545 84.7645 21.6025 85.1165 22.1785C85.4685 22.7545 85.6445 23.4212 85.6445 24.1785C85.6445 24.9252 85.4685 25.5919 85.1165 26.1785C84.7645 26.7545 84.2898 27.2079 83.6925 27.5385C83.1058 27.8585 82.4338 28.0185 81.6765 28.0185C80.9192 28.0185 80.2418 27.8585 79.6445 27.5385C79.0472 27.2079 78.5725 26.7545 78.2205 26.1785C77.8792 25.5919 77.7085 24.9252 77.7085 24.1785ZM79.4845 24.1785C79.4845 24.6372 79.5805 25.0425 79.7725 25.3945C79.9645 25.7359 80.2258 26.0079 80.5565 26.2105C80.8872 26.4025 81.2605 26.4985 81.6765 26.4985C82.0818 26.4985 82.4498 26.4025 82.7805 26.2105C83.1218 26.0079 83.3885 25.7359 83.5805 25.3945C83.7725 25.0425 83.8685 24.6372 83.8685 24.1785C83.8685 23.7199 83.7725 23.3145 83.5805 22.9625C83.3885 22.6105 83.1218 22.3385 82.7805 22.1465C82.4498 21.9545 82.0818 21.8585 81.6765 21.8585C81.2605 21.8585 80.8872 21.9545 80.5565 22.1465C80.2258 22.3385 79.9645 22.6105 79.7725 22.9625C79.5805 23.3145 79.4845 23.7199 79.4845 24.1785ZM89.0601 24.9785C89.0601 25.5012 89.1721 25.9065 89.3961 26.1945C89.6201 26.4825 89.9614 26.6265 90.4201 26.6265C90.7508 26.6265 91.0388 26.5625 91.2841 26.4345C91.5294 26.2959 91.7214 26.1039 91.8601 25.8585C91.9988 25.6025 92.0681 25.3092 92.0681 24.9785V20.4985H93.7961V27.8585H92.0681V26.7225C91.8334 27.1492 91.5294 27.4745 91.1561 27.6985C90.7934 27.9119 90.3561 28.0185 89.8441 28.0185C89.0228 28.0185 88.3881 27.7625 87.9401 27.2505C87.5028 26.7385 87.2841 26.0452 87.2841 25.1705V20.4985H89.0601V24.9785ZM100.739 23.3785C100.739 22.8345 100.627 22.4239 100.403 22.1465C100.179 21.8692 99.8322 21.7305 99.3629 21.7305C99.0429 21.7305 98.7602 21.7999 98.5149 21.9385C98.2695 22.0665 98.0775 22.2585 97.9389 22.5145C97.8002 22.7599 97.7309 23.0479 97.7309 23.3785V27.8585H96.0029V20.4985H97.7309V21.6345C97.9655 21.1972 98.2642 20.8719 98.6269 20.6585C99.0002 20.4452 99.4429 20.3385 99.9549 20.3385C100.787 20.3385 101.422 20.5945 101.859 21.1065C102.296 21.6079 102.515 22.3012 102.515 23.1865V27.8585H100.739V23.3785ZM103.698 20.4985H107.874V22.0185H103.698V20.4985ZM104.93 17.9385H106.642V27.8585H104.93V17.9385Z" fill="white"/>
<path d="M14.5688 29.3103C14.5688 27.9927 15.1082 26.7291 16.0682 25.7975C17.0283 24.8658 18.3303 24.3424 19.688 24.3424H29.9264C31.2841 24.3424 32.5862 24.8658 33.5462 25.7975C34.5062 26.7291 35.0456 27.9927 35.0456 29.3103C35.0456 29.9691 34.7759 30.6009 34.2959 31.0667C33.8159 31.5325 33.1648 31.7942 32.486 31.7942H17.1284C16.4496 31.7942 15.7986 31.5325 15.3185 31.0667C14.8385 30.6009 14.5688 29.9691 14.5688 29.3103Z" stroke="#F2F2F2" stroke-width="2.5" stroke-linejoin="round"/>
<path d="M24.8072 19.3746C26.9277 19.3746 28.6466 17.7065 28.6466 15.6487C28.6466 13.591 26.9277 11.9228 24.8072 11.9228C22.6868 11.9228 20.9678 13.591 20.9678 15.6487C20.9678 17.7065 22.6868 19.3746 24.8072 19.3746Z" stroke="#F2F2F2" stroke-width="2.5"/>
</svg>
