<svg width="25" height="24" viewBox="0 0 25 24" fill="none" xmlns="http://www.w3.org/2000/svg">
<path d="M2.00941 5.985C2.00941 8.02227 2.67619 9.49227 3.9897 10.3555C5.0667 11.0645 6.31474 11.1709 6.96414 11.1709C7.12182 11.1709 7.24876 11.1627 7.33695 11.1573C7.33695 11.1573 7.13117 12.5264 8.12533 13.8791H8.07989C6.3575 13.8791 0.73999 14.2459 0.73999 18.9614C0.73999 23.7559 5.89917 24 6.93475 24C7.01626 24 7.06436 23.9973 7.06436 23.9973C7.07505 23.9973 7.14854 24 7.27548 24C7.93959 24 9.65664 23.9155 11.2508 23.1232C13.3192 22.1005 14.3682 20.3155 14.3682 17.8255C14.3682 15.42 12.7701 13.9882 11.6035 12.9409C10.8913 12.3014 10.2753 11.7505 10.2753 11.2145C10.2753 10.6691 10.7256 10.2586 11.2935 9.73909C12.2142 8.90046 13.0827 7.70455 13.0827 5.44364C13.0827 3.45682 12.8302 2.12182 11.2735 1.275C11.4352 1.19045 12.0097 1.12909 12.293 1.08818C13.1362 0.970909 14.3695 0.837273 14.3695 0.135V0H8.22421C8.16274 0.00272727 2.00941 0.234546 2.00941 5.985ZM11.9296 18.2755C12.0472 20.1927 10.4397 21.6068 8.02511 21.7855C5.57313 21.9695 3.55542 20.8432 3.43784 18.9273C3.38038 18.0055 3.77724 17.1055 4.55359 16.3868C5.34062 15.66 6.42163 15.21 7.59751 15.1214C7.73648 15.1132 7.87411 15.105 8.01175 15.105C10.282 15.1064 11.8187 16.4673 11.9296 18.2755ZM10.3248 4.67182C10.9274 6.83727 10.0174 9.09818 8.56628 9.51682C8.39923 9.56432 8.22658 9.58818 8.05317 9.58773C6.72496 9.58773 5.40877 8.21591 4.91971 6.32455C4.64712 5.26636 4.66984 4.33636 4.98252 3.44455C5.28851 2.565 5.84171 1.97455 6.53655 1.77409C6.70358 1.72636 6.87595 1.70182 7.051 1.70182C8.65447 1.70182 9.68604 2.38091 10.3248 4.67182ZM20.7313 9.27273V5.18182H18.0588V9.27273H14.0502V12H18.0588V16.0909H20.7313V12H24.74V9.27273H20.7313Z" fill="#F2F2F2"/>
</svg>
