<svg width="119" height="44" viewBox="0 0 119 44" fill="none" xmlns="http://www.w3.org/2000/svg">
<path d="M22 20.75V30.75C22 31.413 22.2634 32.0489 22.7322 32.5178C23.2011 32.9866 23.837 33.25 24.5 33.25H39.5C40.163 33.25 40.7989 32.9866 41.2678 32.5178C41.7366 32.0489 42 31.413 42 30.75V20.75" stroke="#F2F2F2" stroke-width="3.125" stroke-linecap="round" stroke-linejoin="round"/>
<path d="M32 13.875C32 12.7147 31.5391 11.6019 30.7186 10.7814C29.8981 9.96094 28.7853 9.5 27.625 9.5C26.7962 9.5 26.0013 9.82924 25.4153 10.4153C24.8292 11.0013 24.5 11.7962 24.5 12.625C24.5 13.4538 24.8292 14.2487 25.4153 14.8347C26.0013 15.4208 26.7962 15.75 27.625 15.75H32M32 13.875V15.75M32 13.875C32 12.7147 32.4609 11.6019 33.2814 10.7814C34.1019 9.96094 35.2147 9.5 36.375 9.5C37.2038 9.5 37.9987 9.82924 38.5847 10.4153C39.1708 11.0013 39.5 11.7962 39.5 12.625C39.5 13.0354 39.4192 13.4417 39.2621 13.8209C39.1051 14.2 38.8749 14.5445 38.5847 14.8347C38.2945 15.1249 37.95 15.3551 37.5709 15.5121C37.1917 15.6692 36.7854 15.75 36.375 15.75H32" stroke="#F2F2F2" stroke-width="3.125" stroke-linejoin="round"/>
<path d="M32 20.75V33.25M20.75 15.75H43.25V20.75H20.75V15.75Z" stroke="#F2F2F2" stroke-width="3.125" stroke-linecap="round" stroke-linejoin="round"/>
<path d="M59.608 22.4C59.608 23.168 59.768 23.856 60.088 24.464C60.4187 25.0613 60.872 25.5307 61.448 25.872C62.024 26.2133 62.68 26.384 63.416 26.384C64.1627 26.384 64.8187 26.2133 65.384 25.872C65.96 25.5307 66.408 25.0613 66.728 24.464C67.0587 23.856 67.224 23.168 67.224 22.4C67.224 21.632 67.064 20.9493 66.744 20.352C66.424 19.744 65.976 19.2693 65.4 18.928C64.8347 18.5867 64.1733 18.416 63.416 18.416C62.68 18.416 62.024 18.5867 61.448 18.928C60.872 19.2693 60.4187 19.744 60.088 20.352C59.768 20.9493 59.608 21.632 59.608 22.4ZM57.608 22.4C57.608 21.5573 57.752 20.784 58.04 20.08C58.328 19.376 58.7333 18.768 59.256 18.256C59.7893 17.7333 60.408 17.328 61.112 17.04C61.8267 16.752 62.5947 16.608 63.416 16.608C64.2587 16.608 65.032 16.752 65.736 17.04C66.44 17.328 67.0533 17.7333 67.576 18.256C68.1093 18.768 68.52 19.376 68.808 20.08C69.096 20.784 69.24 21.5573 69.24 22.4C69.24 23.232 69.096 24.0053 68.808 24.72C68.52 25.4347 68.1147 26.0533 67.592 26.576C67.0693 27.0987 66.4507 27.5093 65.736 27.808C65.032 28.096 64.2587 28.24 63.416 28.24C62.584 28.24 61.8107 28.096 61.096 27.808C60.3813 27.5093 59.7627 27.0987 59.24 26.576C58.728 26.0533 58.328 25.4347 58.04 24.72C57.752 24.0053 57.608 23.232 57.608 22.4ZM70.3241 20.64H74.5481V22.16H70.3241V20.64ZM74.3561 17.376C74.2495 17.2053 74.1268 17.0933 73.9881 17.04C73.8601 16.9867 73.7268 16.96 73.5881 16.96C73.4281 16.96 73.2895 17.0027 73.1721 17.088C73.0655 17.1733 72.9801 17.312 72.9161 17.504C72.8521 17.696 72.8201 17.9467 72.8201 18.256V28H71.1241V17.92C71.1241 17.344 71.2148 16.8693 71.3961 16.496C71.5881 16.112 71.8601 15.824 72.2121 15.632C72.5641 15.4293 72.9961 15.328 73.5081 15.328C73.7961 15.328 74.0468 15.3653 74.2601 15.44C74.4735 15.5147 74.6548 15.6053 74.8041 15.712C74.9641 15.8187 75.0868 15.9253 75.1721 16.032L74.3561 17.376ZM75.2616 20.64H79.4856V22.16H75.2616V20.64ZM79.2936 17.376C79.187 17.2053 79.0643 17.0933 78.9256 17.04C78.7976 16.9867 78.6643 16.96 78.5256 16.96C78.3656 16.96 78.227 17.0027 78.1096 17.088C78.003 17.1733 77.9176 17.312 77.8536 17.504C77.7896 17.696 77.7576 17.9467 77.7576 18.256V28H76.0616V17.92C76.0616 17.344 76.1523 16.8693 76.3336 16.496C76.5256 16.112 76.7976 15.824 77.1496 15.632C77.5016 15.4293 77.9336 15.328 78.4456 15.328C78.7336 15.328 78.9843 15.3653 79.1976 15.44C79.411 15.5147 79.5923 15.6053 79.7416 15.712C79.9016 15.8187 80.0243 15.9253 80.1096 16.032L79.2936 17.376ZM84.0071 28.16C83.2605 28.16 82.5991 28 82.0231 27.68C81.4578 27.36 81.0205 26.912 80.7111 26.336C80.4018 25.76 80.2471 25.088 80.2471 24.32C80.2471 23.5413 80.4018 22.864 80.7111 22.288C81.0311 21.712 81.4791 21.2693 82.0551 20.96C82.6311 20.64 83.3085 20.48 84.0871 20.48C84.8658 20.48 85.5271 20.6293 86.0711 20.928C86.6151 21.2267 87.0311 21.6587 87.3191 22.224C87.6178 22.7787 87.7671 23.4507 87.7671 24.24C87.7671 24.3253 87.7618 24.416 87.7511 24.512C87.7511 24.608 87.7458 24.6773 87.7351 24.72H81.2711V23.536H86.2631L85.7351 24.272C85.7671 24.208 85.7991 24.1227 85.8311 24.016C85.8738 23.8987 85.8951 23.8027 85.8951 23.728C85.8951 23.3333 85.8151 22.992 85.6551 22.704C85.5058 22.416 85.2925 22.192 85.0151 22.032C84.7485 21.872 84.4338 21.792 84.0711 21.792C83.6338 21.792 83.2605 21.888 82.9511 22.08C82.6418 22.272 82.4071 22.5493 82.2471 22.912C82.0871 23.2747 82.0018 23.7227 81.9911 24.256C81.9911 24.7893 82.0711 25.2427 82.2311 25.616C82.3911 25.9787 82.6258 26.256 82.9351 26.448C83.2551 26.64 83.6391 26.736 84.0871 26.736C84.5565 26.736 84.9671 26.64 85.3191 26.448C85.6711 26.256 85.9645 25.9627 86.1991 25.568L87.6871 26.176C87.3031 26.8373 86.8071 27.3333 86.1991 27.664C85.5911 27.9947 84.8605 28.16 84.0071 28.16ZM91.1285 20.64V28H89.4165V20.64H91.1285ZM93.3205 22.48C93.1605 22.352 93.0112 22.256 92.8725 22.192C92.7338 22.128 92.5578 22.096 92.3445 22.096C92.0565 22.096 91.8218 22.1707 91.6405 22.32C91.4592 22.4693 91.3258 22.6773 91.2405 22.944C91.1658 23.2 91.1285 23.504 91.1285 23.856L90.5525 23.52C90.5525 22.9333 90.6592 22.416 90.8725 21.968C91.0965 21.5093 91.3792 21.1467 91.7205 20.88C92.0725 20.6133 92.4352 20.48 92.8085 20.48C93.0752 20.48 93.3258 20.5227 93.5605 20.608C93.7952 20.6827 93.9925 20.8213 94.1525 21.024L93.3205 22.48ZM95.6744 25.584C95.909 25.84 96.1437 26.064 96.3784 26.256C96.6237 26.4373 96.869 26.576 97.1144 26.672C97.3597 26.7573 97.605 26.8 97.8504 26.8C98.1597 26.8 98.3997 26.7307 98.5704 26.592C98.7517 26.4533 98.8424 26.2613 98.8424 26.016C98.8424 25.8027 98.773 25.6213 98.6344 25.472C98.4957 25.312 98.3037 25.1787 98.0584 25.072C97.813 24.9547 97.525 24.8373 97.1944 24.72C96.8637 24.592 96.533 24.4427 96.2024 24.272C95.8824 24.0907 95.6157 23.856 95.4024 23.568C95.1997 23.28 95.0984 22.9173 95.0984 22.48C95.0984 22.032 95.2104 21.6587 95.4344 21.36C95.669 21.0613 95.9784 20.8427 96.3624 20.704C96.757 20.5547 97.1784 20.48 97.6264 20.48C98.0317 20.48 98.4104 20.5387 98.7624 20.656C99.125 20.7733 99.4504 20.928 99.7384 21.12C100.026 21.312 100.272 21.5307 100.474 21.776L99.5144 22.8C99.269 22.512 98.9757 22.2773 98.6344 22.096C98.293 21.9147 97.941 21.824 97.5784 21.824C97.333 21.824 97.1304 21.8773 96.9704 21.984C96.8104 22.0907 96.7304 22.2453 96.7304 22.448C96.7304 22.6187 96.7997 22.7733 96.9384 22.912C97.0877 23.04 97.2797 23.1573 97.5144 23.264C97.7597 23.3707 98.0317 23.4827 98.3304 23.6C98.7357 23.76 99.109 23.936 99.4504 24.128C99.7917 24.32 100.064 24.5547 100.266 24.832C100.48 25.1093 100.586 25.472 100.586 25.92C100.586 26.6133 100.346 27.1733 99.8664 27.6C99.397 28.016 98.757 28.224 97.9464 28.224C97.445 28.224 96.981 28.1493 96.5544 28C96.1384 27.84 95.7704 27.6373 95.4504 27.392C95.141 27.136 94.8797 26.8693 94.6664 26.592L95.6744 25.584Z" fill="white"/>
</svg>
