<svg width="206" height="131" viewBox="0 0 206 131" fill="none" xmlns="http://www.w3.org/2000/svg">
<rect width="206" height="131" rx="4" fill="#F2F2F2"/>
<rect x="23" y="70" width="150" height="7" rx="3.5" fill="#380D37"/>
<path d="M16.092 15.2H17.744V25H16.092V15.2ZM17.072 16.656V15.2H19.046C19.7553 15.2 20.3713 15.326 20.894 15.578C21.426 15.8207 21.8367 16.1707 22.126 16.628C22.4153 17.076 22.56 17.6127 22.56 18.238C22.56 18.8633 22.4153 19.4047 22.126 19.862C21.8367 20.3193 21.426 20.674 20.894 20.926C20.3713 21.1687 19.7553 21.29 19.046 21.29H17.072V19.834H19.046C19.6153 19.834 20.0727 19.6987 20.418 19.428C20.7633 19.1573 20.936 18.7607 20.936 18.238C20.936 17.7153 20.7633 17.3233 20.418 17.062C20.0727 16.7913 19.6153 16.656 19.046 16.656H17.072ZM25.2843 18.56V25H23.7863V18.56H25.2843ZM27.2023 20.17C27.0623 20.058 26.9316 19.974 26.8103 19.918C26.689 19.862 26.535 19.834 26.3483 19.834C26.0963 19.834 25.891 19.8993 25.7323 20.03C25.5736 20.1607 25.457 20.3427 25.3823 20.576C25.317 20.8 25.2843 21.066 25.2843 21.374L24.7803 21.08C24.7803 20.5667 24.8736 20.114 25.0603 19.722C25.2563 19.3207 25.5036 19.0033 25.8023 18.77C26.1103 18.5367 26.4276 18.42 26.7543 18.42C26.9876 18.42 27.207 18.4573 27.4123 18.532C27.6176 18.5973 27.7903 18.7187 27.9303 18.896L27.2023 20.17ZM28.912 15.998C28.912 15.7367 29.0053 15.5173 29.192 15.34C29.388 15.1627 29.612 15.074 29.864 15.074C30.1346 15.074 30.3586 15.1627 30.536 15.34C30.7226 15.5173 30.816 15.7367 30.816 15.998C30.816 16.25 30.7226 16.4693 30.536 16.656C30.3586 16.8333 30.1346 16.922 29.864 16.922C29.612 16.922 29.388 16.8333 29.192 16.656C29.0053 16.4693 28.912 16.25 28.912 15.998ZM29.122 18.56H30.606V25H29.122V18.56ZM33.6947 21.78C33.6947 22.1907 33.7834 22.55 33.9607 22.858C34.138 23.1567 34.376 23.3947 34.6747 23.572C34.9827 23.7493 35.3234 23.838 35.6967 23.838C36.0047 23.838 36.2987 23.7913 36.5787 23.698C36.8587 23.6047 37.106 23.474 37.3207 23.306C37.5354 23.138 37.694 22.9513 37.7967 22.746V24.412C37.5727 24.636 37.2694 24.8133 36.8867 24.944C36.504 25.0747 36.084 25.14 35.6267 25.14C34.964 25.14 34.3667 25 33.8347 24.72C33.312 24.4307 32.8967 24.034 32.5887 23.53C32.29 23.0167 32.1407 22.4333 32.1407 21.78C32.1407 21.1173 32.29 20.534 32.5887 20.03C32.8967 19.526 33.312 19.134 33.8347 18.854C34.3667 18.5647 34.964 18.42 35.6267 18.42C36.084 18.42 36.504 18.4853 36.8867 18.616C37.2694 18.7467 37.5727 18.924 37.7967 19.148V20.814C37.694 20.5993 37.5307 20.4127 37.3067 20.254C37.092 20.086 36.8447 19.9553 36.5647 19.862C36.2847 19.7687 35.9954 19.722 35.6967 19.722C35.3234 19.722 34.9827 19.8107 34.6747 19.988C34.376 20.1653 34.138 20.408 33.9607 20.716C33.7834 21.024 33.6947 21.3787 33.6947 21.78ZM42.268 25.14C41.6146 25.14 41.036 25 40.532 24.72C40.0373 24.44 39.6546 24.048 39.384 23.544C39.1133 23.04 38.978 22.452 38.978 21.78C38.978 21.0987 39.1133 20.506 39.384 20.002C39.664 19.498 40.056 19.1107 40.56 18.84C41.064 18.56 41.6566 18.42 42.338 18.42C43.0193 18.42 43.598 18.5507 44.074 18.812C44.55 19.0733 44.914 19.4513 45.166 19.946C45.4273 20.4313 45.558 21.0193 45.558 21.71C45.558 21.7847 45.5533 21.864 45.544 21.948C45.544 22.032 45.5393 22.0927 45.53 22.13H39.874V21.094H44.242L43.78 21.738C43.808 21.682 43.836 21.6073 43.864 21.514C43.9013 21.4113 43.92 21.3273 43.92 21.262C43.92 20.9167 43.85 20.618 43.71 20.366C43.5793 20.114 43.3926 19.918 43.15 19.778C42.9166 19.638 42.6413 19.568 42.324 19.568C41.9413 19.568 41.6146 19.652 41.344 19.82C41.0733 19.988 40.868 20.2307 40.728 20.548C40.588 20.8653 40.5133 21.2573 40.504 21.724C40.504 22.1907 40.574 22.5873 40.714 22.914C40.854 23.2313 41.0593 23.474 41.33 23.642C41.61 23.81 41.946 23.894 42.338 23.894C42.7486 23.894 43.108 23.81 43.416 23.642C43.724 23.474 43.9806 23.2173 44.186 22.872L45.488 23.404C45.152 23.9827 44.718 24.4167 44.186 24.706C43.654 24.9953 43.0146 25.14 42.268 25.14ZM53.3404 20.324H55.1324L58.4504 25H56.4624L53.3404 20.324ZM51.3244 15.2H52.9764V25H51.3244V15.2ZM52.3044 16.628V15.2H54.3484C55.0578 15.2 55.6738 15.326 56.1964 15.578C56.7284 15.83 57.1391 16.1847 57.4284 16.642C57.7178 17.09 57.8624 17.622 57.8624 18.238C57.8624 18.854 57.7178 19.3907 57.4284 19.848C57.1391 20.3053 56.7284 20.66 56.1964 20.912C55.6738 21.164 55.0578 21.29 54.3484 21.29H52.3044V19.932H54.2784C54.6518 19.932 54.9784 19.8667 55.2584 19.736C55.5478 19.6053 55.7718 19.4187 55.9304 19.176C56.0891 18.924 56.1684 18.6253 56.1684 18.28C56.1684 17.9253 56.0891 17.6267 55.9304 17.384C55.7718 17.1413 55.5478 16.9547 55.2584 16.824C54.9784 16.6933 54.6518 16.628 54.2784 16.628H52.3044ZM60.4766 22.998C60.4766 23.2127 60.5279 23.3993 60.6306 23.558C60.7333 23.7073 60.8733 23.8193 61.0506 23.894C61.2373 23.9687 61.4473 24.006 61.6806 24.006C61.9793 24.006 62.2499 23.9453 62.4926 23.824C62.7446 23.7027 62.9453 23.5253 63.0946 23.292C63.2533 23.0493 63.3326 22.7693 63.3326 22.452L63.5566 23.292C63.5566 23.7027 63.4353 24.048 63.1926 24.328C62.9593 24.5987 62.6606 24.804 62.2966 24.944C61.9419 25.0747 61.5779 25.14 61.2046 25.14C60.8033 25.14 60.4299 25.0607 60.0846 24.902C59.7393 24.7433 59.4639 24.51 59.2586 24.202C59.0533 23.894 58.9506 23.5207 58.9506 23.082C58.9506 22.4567 59.1699 21.962 59.6086 21.598C60.0473 21.2247 60.6679 21.038 61.4706 21.038C61.8999 21.038 62.2686 21.0847 62.5766 21.178C62.8939 21.2713 63.1553 21.3833 63.3606 21.514C63.5659 21.6353 63.7106 21.7473 63.7946 21.85V22.62C63.5053 22.4147 63.1973 22.2653 62.8706 22.172C62.5439 22.0787 62.1986 22.032 61.8346 22.032C61.5173 22.032 61.2606 22.074 61.0646 22.158C60.8686 22.2327 60.7193 22.34 60.6166 22.48C60.5233 22.62 60.4766 22.7927 60.4766 22.998ZM60.0006 20.24L59.3846 19.176C59.6739 18.9987 60.0473 18.826 60.5046 18.658C60.9713 18.49 61.5033 18.406 62.1006 18.406C62.6326 18.406 63.0993 18.4853 63.5006 18.644C63.9113 18.8027 64.2333 19.0313 64.4666 19.33C64.6999 19.6193 64.8166 19.9787 64.8166 20.408V25H63.3326V20.702C63.3326 20.4967 63.2953 20.3287 63.2206 20.198C63.1553 20.0673 63.0619 19.96 62.9406 19.876C62.8193 19.792 62.6746 19.7313 62.5066 19.694C62.3386 19.6567 62.1566 19.638 61.9606 19.638C61.6619 19.638 61.3773 19.6753 61.1066 19.75C60.8453 19.8153 60.6166 19.8993 60.4206 20.002C60.2339 20.0953 60.0939 20.1747 60.0006 20.24ZM70.7233 21.08C70.7233 20.604 70.6253 20.2447 70.4293 20.002C70.2333 19.7593 69.9299 19.638 69.5193 19.638C69.2393 19.638 68.9919 19.6987 68.7773 19.82C68.5626 19.932 68.3946 20.1 68.2733 20.324C68.1519 20.5387 68.0913 20.7907 68.0913 21.08V25H66.5793V18.56H68.0913V19.554C68.2966 19.1713 68.5579 18.8867 68.8753 18.7C69.2019 18.5133 69.5893 18.42 70.0373 18.42C70.7653 18.42 71.3206 18.644 71.7033 19.092C72.0859 19.5307 72.2773 20.1373 72.2773 20.912V25H70.7233V21.08ZM73.8442 25.434H75.3422C75.3515 25.7233 75.4309 25.9847 75.5802 26.218C75.7389 26.4513 75.9535 26.6333 76.2242 26.764C76.4949 26.8947 76.8075 26.96 77.1622 26.96C77.4795 26.96 77.7829 26.8853 78.0722 26.736C78.3615 26.5867 78.5949 26.358 78.7722 26.05C78.9589 25.742 79.0522 25.3453 79.0522 24.86V18.56H80.5362V24.86C80.5362 25.6347 80.3775 26.274 80.0602 26.778C79.7522 27.282 79.3462 27.6553 78.8422 27.898C78.3382 28.15 77.7922 28.276 77.2042 28.276C76.5042 28.276 75.9069 28.1547 75.4122 27.912C74.9175 27.6787 74.5349 27.3473 74.2642 26.918C74.0029 26.4887 73.8629 25.994 73.8442 25.434ZM73.7182 21.752C73.7182 21.0333 73.8629 20.4313 74.1522 19.946C74.4415 19.4513 74.8242 19.0733 75.3002 18.812C75.7855 18.5507 76.3035 18.42 76.8542 18.42C77.3955 18.42 77.8669 18.5553 78.2682 18.826C78.6789 19.0873 79.0009 19.4653 79.2342 19.96C79.4769 20.4547 79.5982 21.052 79.5982 21.752C79.5982 22.4427 79.4769 23.0353 79.2342 23.53C79.0009 24.0247 78.6789 24.4073 78.2682 24.678C77.8669 24.9393 77.3955 25.07 76.8542 25.07C76.3035 25.07 75.7855 24.9393 75.3002 24.678C74.8242 24.4167 74.4415 24.0387 74.1522 23.544C73.8629 23.0493 73.7182 22.452 73.7182 21.752ZM75.2862 21.752C75.2862 22.1813 75.3749 22.5453 75.5522 22.844C75.7295 23.1427 75.9629 23.3713 76.2522 23.53C76.5509 23.6793 76.8729 23.754 77.2182 23.754C77.5075 23.754 77.7922 23.6793 78.0722 23.53C78.3615 23.3807 78.5949 23.1567 78.7722 22.858C78.9589 22.55 79.0522 22.1813 79.0522 21.752C79.0522 21.416 78.9962 21.1267 78.8842 20.884C78.7815 20.632 78.6415 20.422 78.4642 20.254C78.2869 20.0767 78.0862 19.946 77.8622 19.862C77.6475 19.778 77.4329 19.736 77.2182 19.736C76.8729 19.736 76.5509 19.8153 76.2522 19.974C75.9629 20.1233 75.7295 20.3473 75.5522 20.646C75.3749 20.9447 75.2862 21.3133 75.2862 21.752ZM85.2113 25.14C84.558 25.14 83.9793 25 83.4753 24.72C82.9806 24.44 82.598 24.048 82.3273 23.544C82.0566 23.04 81.9213 22.452 81.9213 21.78C81.9213 21.0987 82.0566 20.506 82.3273 20.002C82.6073 19.498 82.9993 19.1107 83.5033 18.84C84.0073 18.56 84.6 18.42 85.2813 18.42C85.9626 18.42 86.5413 18.5507 87.0173 18.812C87.4933 19.0733 87.8573 19.4513 88.1093 19.946C88.3706 20.4313 88.5013 21.0193 88.5013 21.71C88.5013 21.7847 88.4966 21.864 88.4873 21.948C88.4873 22.032 88.4826 22.0927 88.4733 22.13H82.8173V21.094H87.1853L86.7233 21.738C86.7513 21.682 86.7793 21.6073 86.8073 21.514C86.8446 21.4113 86.8633 21.3273 86.8633 21.262C86.8633 20.9167 86.7933 20.618 86.6533 20.366C86.5226 20.114 86.336 19.918 86.0933 19.778C85.86 19.638 85.5846 19.568 85.2673 19.568C84.8846 19.568 84.558 19.652 84.2873 19.82C84.0166 19.988 83.8113 20.2307 83.6713 20.548C83.5313 20.8653 83.4566 21.2573 83.4473 21.724C83.4473 22.1907 83.5173 22.5873 83.6573 22.914C83.7973 23.2313 84.0026 23.474 84.2733 23.642C84.5533 23.81 84.8893 23.894 85.2813 23.894C85.692 23.894 86.0513 23.81 86.3593 23.642C86.6673 23.474 86.924 23.2173 87.1293 22.872L88.4313 23.404C88.0953 23.9827 87.6613 24.4167 87.1293 24.706C86.5973 24.9953 85.958 25.14 85.2113 25.14Z" fill="#380D37"/>
<circle cx="23" cy="73" r="8" fill="white" stroke="#380D37" stroke-width="2"/>
<circle cx="23" cy="73" r="3" fill="#380D37"/>
<circle cx="180" cy="73" r="8" fill="white" stroke="#380D37" stroke-width="2"/>
<circle cx="180" cy="73" r="3" fill="#380D37"/>
<rect x="16" y="97" width="62" height="22" rx="4" fill="white"/>
<rect x="125" y="97" width="62" height="22" rx="4" fill="white"/>
<path d="M45.122 107.8C45.122 108.248 45.166 108.66 45.254 109.036C45.342 109.412 45.466 109.736 45.626 110.008C45.794 110.28 45.994 110.492 46.226 110.644C46.458 110.788 46.714 110.86 46.994 110.86C47.29 110.86 47.55 110.788 47.774 110.644C48.006 110.492 48.202 110.28 48.362 110.008C48.53 109.736 48.658 109.412 48.746 109.036C48.834 108.66 48.878 108.248 48.878 107.8C48.878 107.352 48.834 106.94 48.746 106.564C48.658 106.188 48.53 105.864 48.362 105.592C48.202 105.32 48.006 105.112 47.774 104.968C47.55 104.816 47.29 104.74 46.994 104.74C46.714 104.74 46.458 104.816 46.226 104.968C45.994 105.112 45.794 105.32 45.626 105.592C45.466 105.864 45.342 106.188 45.254 106.564C45.166 106.94 45.122 107.352 45.122 107.8ZM43.73 107.8C43.73 106.928 43.866 106.168 44.138 105.52C44.418 104.872 44.802 104.368 45.29 104.008C45.786 103.648 46.354 103.468 46.994 103.468C47.65 103.468 48.222 103.648 48.71 104.008C49.206 104.368 49.59 104.872 49.862 105.52C50.134 106.168 50.27 106.928 50.27 107.8C50.27 108.672 50.134 109.432 49.862 110.08C49.59 110.728 49.206 111.232 48.71 111.592C48.222 111.952 47.65 112.132 46.994 112.132C46.354 112.132 45.786 111.952 45.29 111.592C44.802 111.232 44.418 110.728 44.138 110.08C43.866 109.432 43.73 108.672 43.73 107.8Z" fill="black"/>
<path d="M133.251 107.884V107.128C133.507 107.128 133.735 107.096 133.935 107.032C134.135 106.96 134.303 106.864 134.439 106.744C134.583 106.624 134.691 106.484 134.763 106.324C134.843 106.156 134.883 105.984 134.883 105.808C134.883 105.584 134.839 105.388 134.751 105.22C134.663 105.044 134.535 104.908 134.367 104.812C134.199 104.716 133.991 104.668 133.743 104.668C133.375 104.668 133.067 104.78 132.819 105.004C132.579 105.22 132.459 105.496 132.459 105.832H131.127C131.127 105.368 131.235 104.96 131.451 104.608C131.675 104.256 131.983 103.98 132.375 103.78C132.767 103.572 133.219 103.468 133.731 103.468C134.275 103.468 134.739 103.572 135.123 103.78C135.507 103.988 135.799 104.264 135.999 104.608C136.207 104.944 136.311 105.32 136.311 105.736C136.311 106.16 136.179 106.536 135.915 106.864C135.651 107.192 135.287 107.444 134.823 107.62C134.367 107.796 133.843 107.884 133.251 107.884ZM133.671 112.144C133.223 112.144 132.819 112.08 132.459 111.952C132.099 111.816 131.795 111.632 131.547 111.4C131.299 111.16 131.107 110.888 130.971 110.584C130.835 110.272 130.767 109.944 130.767 109.6H132.183C132.183 109.872 132.247 110.108 132.375 110.308C132.511 110.5 132.695 110.652 132.927 110.764C133.159 110.868 133.415 110.92 133.695 110.92C133.983 110.92 134.231 110.868 134.439 110.764C134.655 110.66 134.823 110.512 134.943 110.32C135.063 110.12 135.123 109.88 135.123 109.6C135.123 109.376 135.079 109.176 134.991 109C134.903 108.824 134.775 108.676 134.607 108.556C134.447 108.436 134.251 108.344 134.019 108.28C133.787 108.216 133.531 108.184 133.251 108.184V107.38C133.715 107.38 134.147 107.428 134.547 107.524C134.947 107.612 135.295 107.752 135.591 107.944C135.895 108.128 136.131 108.372 136.299 108.676C136.467 108.972 136.551 109.332 136.551 109.756C136.551 110.228 136.431 110.644 136.191 111.004C135.951 111.364 135.615 111.644 135.183 111.844C134.751 112.044 134.247 112.144 133.671 112.144ZM138.49 110.68L139.786 111.052L138.394 114.052L137.434 113.788L138.49 110.68ZM142.491 107.8C142.491 108.248 142.535 108.66 142.623 109.036C142.711 109.412 142.835 109.736 142.995 110.008C143.163 110.28 143.363 110.492 143.595 110.644C143.827 110.788 144.083 110.86 144.363 110.86C144.659 110.86 144.919 110.788 145.143 110.644C145.375 110.492 145.571 110.28 145.731 110.008C145.899 109.736 146.027 109.412 146.115 109.036C146.203 108.66 146.247 108.248 146.247 107.8C146.247 107.352 146.203 106.94 146.115 106.564C146.027 106.188 145.899 105.864 145.731 105.592C145.571 105.32 145.375 105.112 145.143 104.968C144.919 104.816 144.659 104.74 144.363 104.74C144.083 104.74 143.827 104.816 143.595 104.968C143.363 105.112 143.163 105.32 142.995 105.592C142.835 105.864 142.711 106.188 142.623 106.564C142.535 106.94 142.491 107.352 142.491 107.8ZM141.099 107.8C141.099 106.928 141.235 106.168 141.507 105.52C141.787 104.872 142.171 104.368 142.659 104.008C143.155 103.648 143.723 103.468 144.363 103.468C145.019 103.468 145.591 103.648 146.079 104.008C146.575 104.368 146.959 104.872 147.231 105.52C147.503 106.168 147.639 106.928 147.639 107.8C147.639 108.672 147.503 109.432 147.231 110.08C146.959 110.728 146.575 111.232 146.079 111.592C145.591 111.952 145.019 112.132 144.363 112.132C143.723 112.132 143.155 111.952 142.659 111.592C142.171 111.232 141.787 110.728 141.507 110.08C141.235 109.432 141.099 108.672 141.099 107.8ZM149.991 107.8C149.991 108.248 150.035 108.66 150.123 109.036C150.211 109.412 150.335 109.736 150.495 110.008C150.663 110.28 150.863 110.492 151.095 110.644C151.327 110.788 151.583 110.86 151.863 110.86C152.159 110.86 152.419 110.788 152.643 110.644C152.875 110.492 153.071 110.28 153.231 110.008C153.399 109.736 153.527 109.412 153.615 109.036C153.703 108.66 153.747 108.248 153.747 107.8C153.747 107.352 153.703 106.94 153.615 106.564C153.527 106.188 153.399 105.864 153.231 105.592C153.071 105.32 152.875 105.112 152.643 104.968C152.419 104.816 152.159 104.74 151.863 104.74C151.583 104.74 151.327 104.816 151.095 104.968C150.863 105.112 150.663 105.32 150.495 105.592C150.335 105.864 150.211 106.188 150.123 106.564C150.035 106.94 149.991 107.352 149.991 107.8ZM148.599 107.8C148.599 106.928 148.735 106.168 149.007 105.52C149.287 104.872 149.671 104.368 150.159 104.008C150.655 103.648 151.223 103.468 151.863 103.468C152.519 103.468 153.091 103.648 153.579 104.008C154.075 104.368 154.459 104.872 154.731 105.52C155.003 106.168 155.139 106.928 155.139 107.8C155.139 108.672 155.003 109.432 154.731 110.08C154.459 110.728 154.075 111.232 153.579 111.592C153.091 111.952 152.519 112.132 151.863 112.132C151.223 112.132 150.655 111.952 150.159 111.592C149.671 111.232 149.287 110.728 149.007 110.08C148.735 109.432 148.599 108.672 148.599 107.8ZM157.263 110.68L158.559 111.052L157.167 114.052L156.207 113.788L157.263 110.68ZM161.265 107.8C161.265 108.248 161.309 108.66 161.397 109.036C161.485 109.412 161.609 109.736 161.769 110.008C161.937 110.28 162.137 110.492 162.369 110.644C162.601 110.788 162.857 110.86 163.137 110.86C163.433 110.86 163.693 110.788 163.917 110.644C164.149 110.492 164.345 110.28 164.505 110.008C164.673 109.736 164.801 109.412 164.889 109.036C164.977 108.66 165.021 108.248 165.021 107.8C165.021 107.352 164.977 106.94 164.889 106.564C164.801 106.188 164.673 105.864 164.505 105.592C164.345 105.32 164.149 105.112 163.917 104.968C163.693 104.816 163.433 104.74 163.137 104.74C162.857 104.74 162.601 104.816 162.369 104.968C162.137 105.112 161.937 105.32 161.769 105.592C161.609 105.864 161.485 106.188 161.397 106.564C161.309 106.94 161.265 107.352 161.265 107.8ZM159.873 107.8C159.873 106.928 160.009 106.168 160.281 105.52C160.561 104.872 160.945 104.368 161.433 104.008C161.929 103.648 162.497 103.468 163.137 103.468C163.793 103.468 164.365 103.648 164.853 104.008C165.349 104.368 165.733 104.872 166.005 105.52C166.277 106.168 166.413 106.928 166.413 107.8C166.413 108.672 166.277 109.432 166.005 110.08C165.733 110.728 165.349 111.232 164.853 111.592C164.365 111.952 163.793 112.132 163.137 112.132C162.497 112.132 161.929 111.952 161.433 111.592C160.945 111.232 160.561 110.728 160.281 110.08C160.009 109.432 159.873 108.672 159.873 107.8ZM168.765 107.8C168.765 108.248 168.809 108.66 168.897 109.036C168.985 109.412 169.109 109.736 169.269 110.008C169.437 110.28 169.637 110.492 169.869 110.644C170.101 110.788 170.357 110.86 170.637 110.86C170.933 110.86 171.193 110.788 171.417 110.644C171.649 110.492 171.845 110.28 172.005 110.008C172.173 109.736 172.301 109.412 172.389 109.036C172.477 108.66 172.521 108.248 172.521 107.8C172.521 107.352 172.477 106.94 172.389 106.564C172.301 106.188 172.173 105.864 172.005 105.592C171.845 105.32 171.649 105.112 171.417 104.968C171.193 104.816 170.933 104.74 170.637 104.74C170.357 104.74 170.101 104.816 169.869 104.968C169.637 105.112 169.437 105.32 169.269 105.592C169.109 105.864 168.985 106.188 168.897 106.564C168.809 106.94 168.765 107.352 168.765 107.8ZM167.373 107.8C167.373 106.928 167.509 106.168 167.781 105.52C168.061 104.872 168.445 104.368 168.933 104.008C169.429 103.648 169.997 103.468 170.637 103.468C171.293 103.468 171.865 103.648 172.353 104.008C172.849 104.368 173.233 104.872 173.505 105.52C173.777 106.168 173.913 106.928 173.913 107.8C173.913 108.672 173.777 109.432 173.505 110.08C173.233 110.728 172.849 111.232 172.353 111.592C171.865 111.952 171.293 112.132 170.637 112.132C169.997 112.132 169.429 111.952 168.933 111.592C168.445 111.232 168.061 110.728 167.781 110.08C167.509 109.432 167.373 108.672 167.373 107.8ZM176.265 107.8C176.265 108.248 176.309 108.66 176.397 109.036C176.485 109.412 176.609 109.736 176.769 110.008C176.937 110.28 177.137 110.492 177.369 110.644C177.601 110.788 177.857 110.86 178.137 110.86C178.433 110.86 178.693 110.788 178.917 110.644C179.149 110.492 179.345 110.28 179.505 110.008C179.673 109.736 179.801 109.412 179.889 109.036C179.977 108.66 180.021 108.248 180.021 107.8C180.021 107.352 179.977 106.94 179.889 106.564C179.801 106.188 179.673 105.864 179.505 105.592C179.345 105.32 179.149 105.112 178.917 104.968C178.693 104.816 178.433 104.74 178.137 104.74C177.857 104.74 177.601 104.816 177.369 104.968C177.137 105.112 176.937 105.32 176.769 105.592C176.609 105.864 176.485 106.188 176.397 106.564C176.309 106.94 176.265 107.352 176.265 107.8ZM174.873 107.8C174.873 106.928 175.009 106.168 175.281 105.52C175.561 104.872 175.945 104.368 176.433 104.008C176.929 103.648 177.497 103.468 178.137 103.468C178.793 103.468 179.365 103.648 179.853 104.008C180.349 104.368 180.733 104.872 181.005 105.52C181.277 106.168 181.413 106.928 181.413 107.8C181.413 108.672 181.277 109.432 181.005 110.08C180.733 110.728 180.349 111.232 179.853 111.592C179.365 111.952 178.793 112.132 178.137 112.132C177.497 112.132 176.929 111.952 176.433 111.592C175.945 111.232 175.561 110.728 175.281 110.08C175.009 109.432 174.873 108.672 174.873 107.8Z" fill="black"/>
<line x1="3" y1="37.5" x2="203" y2="37.5" stroke="#380D37" stroke-opacity="0.2"/>
</svg>
