<svg width="26" height="24" viewBox="0 0 26 24" fill="none" xmlns="http://www.w3.org/2000/svg">
<path d="M14.4842 2.00123C15.2468 1.99843 16.0094 2.00576 16.7717 2.02323L16.9745 2.03023C17.2086 2.03823 17.4395 2.04823 17.7185 2.06023C18.8304 2.11023 19.5891 2.27823 20.2547 2.52523C20.9444 2.77923 21.5255 3.12323 22.1065 3.67923C22.6377 4.17884 23.0489 4.78318 23.3114 5.45023C23.5695 6.08723 23.745 6.81423 23.7973 7.87823C23.8098 8.14423 23.8203 8.36623 23.8286 8.59023L23.8349 8.78423C23.8535 9.51342 23.8615 10.2428 23.8589 10.9722L23.86 11.7182V13.0282C23.8626 13.758 23.8545 14.4877 23.8359 15.2172L23.8297 15.4112C23.8213 15.6352 23.8109 15.8562 23.7983 16.1232C23.7461 17.1872 23.5684 17.9132 23.3114 18.5502C23.0497 19.218 22.6385 19.8228 22.1065 20.3222C21.5839 20.8306 20.9521 21.224 20.2547 21.4752C19.5891 21.7222 18.8304 21.8902 17.7185 21.9402C17.4395 21.9522 17.2086 21.9622 16.9745 21.9702L16.7717 21.9762C16.0094 21.994 15.2468 22.0017 14.4842 21.9992L13.7047 22.0002H12.3368C11.5742 22.0027 10.8116 21.995 10.0493 21.9772L9.84653 21.9712C9.59846 21.9626 9.35044 21.9526 9.10249 21.9412C7.99061 21.8912 7.23194 21.7212 6.56523 21.4752C5.86789 21.2246 5.23624 20.8311 4.71454 20.3222C4.18268 19.8225 3.77114 19.2178 3.50861 18.5502C3.25049 17.9132 3.07493 17.1872 3.02268 16.1232C3.01105 15.8859 3.0006 15.6486 2.99133 15.4112L2.98611 15.2172C2.96684 14.4877 2.95813 13.758 2.95998 13.0282V10.9722C2.95707 10.2428 2.96473 9.51343 2.98297 8.78423L2.99029 8.59023C2.99865 8.36623 3.0091 8.14423 3.02164 7.87823C3.07389 6.81323 3.24945 6.08823 3.50756 5.45023C3.77025 4.78285 4.1826 4.17868 4.71558 3.68023C5.23693 3.17098 5.86818 2.7768 6.56523 2.52523C7.23194 2.27823 7.98957 2.11023 9.10249 2.06023L9.84653 2.03023L10.0493 2.02523C10.8113 2.0068 11.5735 1.99847 12.3357 2.00023L14.4842 2.00123ZM13.41 7.00123C12.7177 6.99186 12.0303 7.11425 11.3879 7.3613C10.7454 7.60834 10.1607 7.97511 9.66768 8.44029C9.17464 8.90546 8.78314 9.45977 8.51592 10.071C8.2487 10.6822 8.11109 11.3382 8.11109 12.0007C8.11109 12.6633 8.2487 13.3192 8.51592 13.9305C8.78314 14.5417 9.17464 15.096 9.66768 15.5612C10.1607 16.0264 10.7454 16.3931 11.3879 16.6402C12.0303 16.8872 12.7177 17.0096 13.41 17.0002C14.7957 17.0002 16.1247 16.4734 17.1046 15.5358C18.0845 14.5981 18.635 13.3263 18.635 12.0002C18.635 10.6741 18.0845 9.40238 17.1046 8.4647C16.1247 7.52701 14.7957 7.00123 13.41 7.00123ZM13.41 9.00123C13.8264 8.99389 14.2402 9.06603 14.6272 9.21344C15.0142 9.36085 15.3666 9.58057 15.6638 9.85978C15.9611 10.139 16.1972 10.4721 16.3584 10.8396C16.5196 11.2071 16.6027 11.6016 16.6027 12.0002C16.6028 12.3988 16.5199 12.7934 16.3588 13.1609C16.1977 13.5285 15.9617 13.8617 15.6646 14.141C15.3674 14.4203 15.0151 14.6401 14.6282 14.7876C14.2412 14.9352 13.8275 15.0074 13.411 15.0002C12.5796 15.0002 11.7822 14.6842 11.1942 14.1216C10.6063 13.5589 10.276 12.7959 10.276 12.0002C10.276 11.2046 10.6063 10.4415 11.1942 9.87891C11.7822 9.3163 12.5796 9.00023 13.411 9.00023L13.41 9.00123ZM18.8962 5.50123C18.5591 5.51414 18.2403 5.65138 18.0065 5.8842C17.7728 6.11702 17.6422 6.42736 17.6422 6.75023C17.6422 7.0731 17.7728 7.38344 18.0065 7.61626C18.2403 7.84908 18.5591 7.98632 18.8962 7.99923C19.2427 7.99923 19.5749 7.86753 19.8199 7.63311C20.0649 7.39869 20.2025 7.08075 20.2025 6.74923C20.2025 6.41771 20.0649 6.09977 19.8199 5.86535C19.5749 5.63093 19.2427 5.49923 18.8962 5.49923V5.50123Z" fill="#F2F2F2"/>
</svg>
