<svg width="120" height="44" viewBox="0 0 120 44" fill="none" xmlns="http://www.w3.org/2000/svg">
<path d="M67.7543 22.2585C67.7543 23.0479 67.9303 23.7412 68.2823 24.3385C68.645 24.9359 69.1143 25.3999 69.6903 25.7305C70.277 26.0505 70.9117 26.2105 71.5943 26.2105C72.1277 26.2105 72.6077 26.1412 73.0343 26.0025C73.461 25.8639 73.845 25.6772 74.1863 25.4425C74.5383 25.1972 74.8423 24.9252 75.0983 24.6265V26.8665C74.629 27.2505 74.1223 27.5439 73.5783 27.7465C73.0343 27.9492 72.3517 28.0505 71.5303 28.0505C70.709 28.0505 69.941 27.9119 69.2263 27.6345C68.5223 27.3572 67.909 26.9572 67.3863 26.4345C66.8637 25.9119 66.453 25.2985 66.1543 24.5945C65.8663 23.8799 65.7223 23.1012 65.7223 22.2585C65.7223 21.4159 65.8663 20.6425 66.1543 19.9385C66.453 19.2239 66.8637 18.6052 67.3863 18.0825C67.909 17.5599 68.5223 17.1599 69.2263 16.8825C69.941 16.6052 70.709 16.4665 71.5303 16.4665C72.3517 16.4665 73.0343 16.5679 73.5783 16.7705C74.1223 16.9732 74.629 17.2665 75.0983 17.6505V19.8905C74.8423 19.5919 74.5383 19.3252 74.1863 19.0905C73.845 18.8452 73.461 18.6532 73.0343 18.5145C72.6077 18.3759 72.1277 18.3065 71.5943 18.3065C70.9117 18.3065 70.277 18.4719 69.6903 18.8025C69.1143 19.1225 68.645 19.5812 68.2823 20.1785C67.9303 20.7652 67.7543 21.4585 67.7543 22.2585ZM78.3688 25.5705C78.3688 25.8159 78.4275 26.0292 78.5448 26.2105C78.6622 26.3812 78.8222 26.5092 79.0248 26.5945C79.2382 26.6799 79.4782 26.7225 79.7448 26.7225C80.0862 26.7225 80.3955 26.6532 80.6728 26.5145C80.9608 26.3759 81.1902 26.1732 81.3608 25.9065C81.5422 25.6292 81.6328 25.3092 81.6328 24.9465L81.8888 25.9065C81.8888 26.3759 81.7502 26.7705 81.4728 27.0905C81.2062 27.3999 80.8648 27.6345 80.4488 27.7945C80.0435 27.9439 79.6275 28.0185 79.2008 28.0185C78.7422 28.0185 78.3155 27.9279 77.9208 27.7465C77.5262 27.5652 77.2115 27.2985 76.9768 26.9465C76.7422 26.5945 76.6248 26.1679 76.6248 25.6665C76.6248 24.9519 76.8755 24.3865 77.3768 23.9705C77.8782 23.5439 78.5875 23.3305 79.5048 23.3305C79.9955 23.3305 80.4168 23.3839 80.7688 23.4905C81.1315 23.5972 81.4302 23.7252 81.6648 23.8745C81.8995 24.0132 82.0648 24.1412 82.1608 24.2585V25.1385C81.8302 24.9039 81.4782 24.7332 81.1048 24.6265C80.7315 24.5199 80.3368 24.4665 79.9208 24.4665C79.5582 24.4665 79.2648 24.5145 79.0408 24.6105C78.8168 24.6959 78.6462 24.8185 78.5288 24.9785C78.4222 25.1385 78.3688 25.3359 78.3688 25.5705ZM77.8248 22.4185L77.1208 21.2025C77.4515 20.9999 77.8782 20.8025 78.4008 20.6105C78.9342 20.4185 79.5422 20.3225 80.2248 20.3225C80.8328 20.3225 81.3662 20.4132 81.8248 20.5945C82.2942 20.7759 82.6622 21.0372 82.9288 21.3785C83.1955 21.7092 83.3288 22.1199 83.3288 22.6105V27.8585H81.6328V22.9465C81.6328 22.7119 81.5902 22.5199 81.5048 22.3705C81.4302 22.2212 81.3235 22.0985 81.1848 22.0025C81.0462 21.9065 80.8808 21.8372 80.6888 21.7945C80.4968 21.7519 80.2888 21.7305 80.0648 21.7305C79.7235 21.7305 79.3982 21.7732 79.0888 21.8585C78.7902 21.9332 78.5288 22.0292 78.3048 22.1465C78.0915 22.2532 77.9315 22.3439 77.8248 22.4185ZM87.0553 20.4985V27.8585H85.3433V20.4985H87.0553ZM89.2473 22.3385C89.0873 22.2105 88.938 22.1145 88.7993 22.0505C88.6607 21.9865 88.4847 21.9545 88.2713 21.9545C87.9833 21.9545 87.7487 22.0292 87.5673 22.1785C87.386 22.3279 87.2527 22.5359 87.1673 22.8025C87.0927 23.0585 87.0553 23.3625 87.0553 23.7145L86.4793 23.3785C86.4793 22.7919 86.586 22.2745 86.7993 21.8265C87.0233 21.3679 87.306 21.0052 87.6473 20.7385C87.9993 20.4719 88.362 20.3385 88.7353 20.3385C89.002 20.3385 89.2527 20.3812 89.4873 20.4665C89.722 20.5412 89.9193 20.6799 90.0793 20.8825L89.2473 22.3385ZM90.2412 20.4985H94.4172V22.0185H90.2412V20.4985ZM91.4732 17.9385H93.1852V27.8585H91.4732V17.9385Z" fill="white"/>
<path d="M29.581 13.9099L31.9716 28.9824C32.0146 29.2828 32.1692 29.5576 32.4063 29.7552C32.6433 29.9528 32.9466 30.0595 33.2591 30.0554H47.3164C47.5917 30.0555 47.8597 29.9693 48.0805 29.8098C48.3014 29.6503 48.4634 29.4259 48.5424 29.1699L52.3818 16.7503C52.439 16.5649 52.4508 16.369 52.4162 16.1784C52.3816 15.9877 52.3015 15.8076 52.1824 15.6523C52.0633 15.497 51.9085 15.3709 51.7302 15.284C51.5519 15.1971 51.3552 15.1519 51.1557 15.1519H32.3683L31.946 12.4966C31.9034 12.1926 31.7455 11.915 31.5032 11.7179C31.2673 11.5246 30.9672 11.4209 30.6585 11.426H28.1194C27.9514 11.426 27.7849 11.4581 27.6297 11.5206C27.4744 11.583 27.3333 11.6745 27.2145 11.7898C27.0956 11.9051 27.0014 12.042 26.937 12.1927C26.8727 12.3434 26.8396 12.5049 26.8396 12.668C26.8396 12.8311 26.8727 12.9926 26.937 13.1433C27.0014 13.2939 27.0956 13.4309 27.2145 13.5462C27.3333 13.6615 27.4744 13.753 27.6297 13.8154C27.7849 13.8778 27.9514 13.9099 28.1194 13.9099H29.581ZM34.3367 27.5715L32.7625 17.6358H49.4357L46.3642 27.5715H34.3367ZM37.078 33.7813C37.078 34.4401 36.8083 35.0719 36.3283 35.5377C35.8483 36.0036 35.1972 36.2652 34.5184 36.2652C33.8396 36.2652 33.1885 36.0036 32.7085 35.5377C32.2285 35.0719 31.9588 34.4401 31.9588 33.7813C31.9588 33.1225 32.2285 32.4908 32.7085 32.0249C33.1885 31.5591 33.8396 31.2974 34.5184 31.2974C35.1972 31.2974 35.8483 31.5591 36.3283 32.0249C36.8083 32.4908 37.078 33.1225 37.078 33.7813ZM48.5961 33.7813C48.5961 34.4401 48.3265 35.0719 47.8465 35.5377C47.3664 36.0036 46.7154 36.2652 46.0366 36.2652C45.3577 36.2652 44.7067 36.0036 44.2267 35.5377C43.7466 35.0719 43.477 34.4401 43.477 33.7813C43.477 33.1225 43.7466 32.4908 44.2267 32.0249C44.7067 31.5591 45.3577 31.2974 46.0366 31.2974C46.7154 31.2974 47.3664 31.5591 47.8465 32.0249C48.3265 32.4908 48.5961 33.1225 48.5961 33.7813Z" fill="#F2F2F2"/>
</svg>
