<svg width="27" height="24" viewBox="0 0 27 24" fill="none" xmlns="http://www.w3.org/2000/svg">
<g clip-path="url(#clip0_37_704)">
<path d="M13.475 0C20.4078 0 26.015 5.36571 26.015 12C26.015 18.6343 20.4078 24 13.475 24C6.54217 24 0.934998 18.6343 0.934998 12C0.934998 5.36571 6.54217 0 13.475 0ZM11.182 18.3257C16.7354 18.3257 19.7808 13.92 19.7808 10.0971V9.72C20.372 9.30857 20.8915 8.79429 21.2856 8.21143C20.7482 8.43429 20.157 8.58857 19.5479 8.67429C20.1749 8.31429 20.6586 7.74857 20.8736 7.08C20.2824 7.40571 19.6375 7.64571 18.9568 7.78286C18.4014 7.21714 17.6132 6.87429 16.7533 6.87429C15.0873 6.87429 13.7258 8.17714 13.7258 9.77143C13.7258 9.99429 13.7437 10.2171 13.8154 10.4229C11.3074 10.3029 9.06808 9.15429 7.5812 7.40571C7.3304 7.83429 7.16917 8.33143 7.16917 8.86286C7.16917 9.85714 7.7066 10.7486 8.51274 11.2629C8.01114 11.2629 7.54537 11.1257 7.15125 10.9029V10.9371C7.15125 12.3429 8.19028 13.5086 9.56968 13.7829C9.31888 13.8514 9.05017 13.8857 8.78146 13.8857C8.5844 13.8857 8.40525 13.8686 8.2082 13.8343C8.5844 14.9829 9.713 15.8229 11.0207 15.84C9.98171 16.6114 8.67397 17.0743 7.25874 17.0743C7.00794 17.0743 6.77505 17.0743 6.54217 17.04C7.86783 17.8629 9.4622 18.3429 11.1641 18.3429" fill="#F2F2F2"/>
</g>
<defs>
<clipPath id="clip0_37_704">
<rect width="25.08" height="24" fill="white" transform="translate(0.934998)"/>
</clipPath>
</defs>
</svg>
