<svg width="26" height="24" viewBox="0 0 26 24" fill="none" xmlns="http://www.w3.org/2000/svg">
<path d="M24.84 9.70998C24.8917 8.27864 24.5646 6.858 23.8891 5.57998C23.4307 5.05558 22.7946 4.70169 22.0917 4.57998C19.184 4.32751 16.2642 4.22403 13.345 4.26998C10.4364 4.22194 7.52718 4.32208 4.6297 4.56998C4.05685 4.6697 3.52672 4.92683 3.104 5.30998C2.1635 6.13998 2.059 7.55998 1.9545 8.75998C1.80289 10.9175 1.80289 13.0824 1.9545 15.24C1.98473 15.9154 2.08982 16.5858 2.268 17.24C2.394 17.745 2.64893 18.2123 3.00995 18.6C3.43555 19.0034 3.97802 19.2752 4.567 19.38C6.81993 19.6461 9.08999 19.7564 11.3595 19.71C15.017 19.76 18.2252 19.71 22.0185 19.43C22.6219 19.3316 23.1797 19.0595 23.6174 18.65C23.9099 18.3699 24.1284 18.0271 24.2548 17.65C24.6285 16.5526 24.8121 15.4041 24.7982 14.25C24.84 13.69 24.84 10.31 24.84 9.70998ZM10.9833 14.85V8.65998L17.1697 11.77C15.435 12.69 13.1465 13.73 10.9833 14.85Z" fill="#F2F2F2"/>
</svg>
