<svg width="22" height="20" viewBox="0 0 22 20" fill="none" xmlns="http://www.w3.org/2000/svg">
<path d="M12.4842 0.0012304C13.2468 -0.00156983 14.0094 0.00576429 14.7717 0.0232305L14.9745 0.0302304C15.2086 0.0382304 15.4395 0.0482304 15.7185 0.0602304C16.8304 0.11023 17.5891 0.278231 18.2547 0.525231C18.9444 0.779231 19.5255 1.12323 20.1065 1.67923C20.6377 2.17884 21.0489 2.78318 21.3114 3.45023C21.5695 4.08723 21.745 4.81423 21.7973 5.87823C21.8098 6.14423 21.8203 6.36623 21.8286 6.59023L21.8349 6.78423C21.8535 7.51342 21.8615 8.24283 21.8589 8.97223L21.86 9.71823V11.0282C21.8626 11.758 21.8545 12.4877 21.8359 13.2172L21.8297 13.4112C21.8213 13.6352 21.8109 13.8562 21.7983 14.1232C21.7461 15.1872 21.5684 15.9132 21.3114 16.5502C21.0497 17.218 20.6385 17.8228 20.1065 18.3222C19.5839 18.8306 18.9521 19.224 18.2547 19.4752C17.5891 19.7222 16.8304 19.8902 15.7185 19.9402C15.4395 19.9522 15.2086 19.9622 14.9745 19.9702L14.7717 19.9762C14.0094 19.994 13.2468 20.0017 12.4842 19.9992L11.7047 20.0002H10.3368C9.57419 20.0027 8.81162 19.995 8.04926 19.9772L7.84653 19.9712C7.59846 19.9626 7.35044 19.9526 7.10249 19.9412C5.99061 19.8912 5.23194 19.7212 4.56523 19.4752C3.86789 19.2246 3.23624 18.8311 2.71454 18.3222C2.18268 17.8225 1.77114 17.2178 1.50861 16.5502C1.25049 15.9132 1.07493 15.1872 1.02268 14.1232C1.01105 13.8859 1.0006 13.6486 0.991334 13.4112L0.986109 13.2172C0.966843 12.4877 0.958134 11.758 0.959984 11.0282V8.97223C0.957068 8.24283 0.964732 7.51343 0.982974 6.78423L0.990289 6.59023C0.998649 6.36623 1.0091 6.14423 1.02164 5.87823C1.07389 4.81323 1.24945 4.08823 1.50756 3.45023C1.77025 2.78285 2.1826 2.17868 2.71558 1.68023C3.23693 1.17098 3.86818 0.776803 4.56523 0.525231C5.23194 0.278231 5.98957 0.11023 7.10249 0.0602304L7.84653 0.0302304L8.04926 0.0252306C8.81126 0.00680338 9.57349 -0.00153085 10.3357 0.000230468L12.4842 0.0012304ZM11.41 5.00123C10.7177 4.99186 10.0303 5.11425 9.38788 5.3613C8.74544 5.60834 8.16071 5.97511 7.66768 6.44029C7.17464 6.90546 6.78314 7.45977 6.51592 8.07099C6.2487 8.68222 6.11109 9.33817 6.11109 10.0007C6.11109 10.6633 6.2487 11.3192 6.51592 11.9305C6.78314 12.5417 7.17464 13.096 7.66768 13.5612C8.16071 14.0264 8.74544 14.3931 9.38788 14.6402C10.0303 14.8872 10.7177 15.0096 11.41 15.0002C12.7957 15.0002 14.1247 14.4734 15.1046 13.5358C16.0845 12.5981 16.635 11.3263 16.635 10.0002C16.635 8.67415 16.0845 7.40238 15.1046 6.4647C14.1247 5.52701 12.7957 5.00123 11.41 5.00123ZM11.41 7.00123C11.8264 6.99389 12.2402 7.06603 12.6272 7.21344C13.0142 7.36085 13.3666 7.58057 13.6638 7.85978C13.9611 8.13898 14.1972 8.47206 14.3584 8.83957C14.5196 9.20708 14.6027 9.60165 14.6027 10.0002C14.6028 10.3988 14.5199 10.7934 14.3588 11.1609C14.1977 11.5285 13.9617 11.8617 13.6646 12.141C13.3674 12.4203 13.0151 12.6401 12.6282 12.7876C12.2412 12.9352 11.8275 13.0074 11.411 13.0002C10.5796 13.0002 9.78218 12.6842 9.19425 12.1216C8.60632 11.5589 8.27603 10.7959 8.27603 10.0002C8.27603 9.20458 8.60632 8.44152 9.19425 7.87891C9.78218 7.3163 10.5796 7.00023 11.411 7.00023L11.41 7.00123ZM16.8962 3.50123C16.5591 3.51414 16.2403 3.65138 16.0065 3.8842C15.7728 4.11702 15.6422 4.42736 15.6422 4.75023C15.6422 5.0731 15.7728 5.38344 16.0065 5.61626C16.2403 5.84908 16.5591 5.98632 16.8962 5.99923C17.2427 5.99923 17.5749 5.86753 17.8199 5.63311C18.0649 5.39869 18.2025 5.08075 18.2025 4.74923C18.2025 4.41771 18.0649 4.09977 17.8199 3.86535C17.5749 3.63093 17.2427 3.49923 16.8962 3.49923V3.50123Z" fill="#F2F2F2"/>
</svg>
