<svg width="24" height="16" viewBox="0 0 24 16" fill="none" xmlns="http://www.w3.org/2000/svg">
<path d="M23.84 5.70998C23.8917 4.27864 23.5646 2.858 22.8891 1.57998C22.4307 1.05558 21.7946 0.701694 21.0917 0.579984C18.184 0.327509 15.2642 0.224028 12.345 0.269984C9.4364 0.221942 6.52718 0.322084 3.6297 0.569984C3.05685 0.669701 2.52672 0.926826 2.104 1.30998C1.1635 2.13998 1.059 3.55998 0.954502 4.75998C0.802886 6.91755 0.802886 9.08242 0.954502 11.24C0.984734 11.9154 1.08982 12.5858 1.268 13.24C1.394 13.745 1.64893 14.2123 2.00995 14.6C2.43555 15.0034 2.97802 15.2752 3.567 15.38C5.81993 15.6461 8.08999 15.7564 10.3595 15.71C14.017 15.76 17.2252 15.71 21.0185 15.43C21.6219 15.3316 22.1797 15.0595 22.6174 14.65C22.9099 14.3699 23.1284 14.0271 23.2548 13.65C23.6285 12.5526 23.8121 11.4041 23.7982 10.25C23.84 9.68998 23.84 6.30998 23.84 5.70998ZM9.9833 10.85V4.65998L16.1697 7.76998C14.435 8.68998 12.1465 9.72998 9.9833 10.85Z" fill="#F2F2F2"/>
</svg>
